<svg version="1.2" xmlns="http://www.w3.org/2000/svg" viewBox="0 0 491 144" width="170" height="50"><style>.a{fill:#ded5cf}.b{fill:#00a1e0}.c{fill:#fff}.d{fill:#032e61}</style><path class="a" d="m475.1 144.2h-459.3c-8.9 0-16.2-7.2-16.2-16.1v-112.2c0-8.9 7.3-16.1 16.2-16.1h459.3c8.9 0 16.2 7.2 16.2 16.1v112.2c0 8.9-7.3 16.1-16.2 16.1z"/><path class="b" d="m232 28.2c5.1-5.3 12.3-8.7 20.3-8.7 10.5 0 19.7 5.9 24.6 14.7 4.3-1.9 9-3 14-3 19 0 34.4 15.6 34.4 34.8 0 19.2-15.4 34.7-34.4 34.7q-3.5 0-6.8-0.6c-4.3 7.7-12.6 12.9-22 12.9-4 0-7.7-0.9-11-2.6-4.4 10.3-14.6 17.6-26.5 17.6-12.4 0-22.9-7.9-27-18.9q-2.6 0.6-5.5 0.6c-14.7 0-26.7-12.1-26.7-27 0-9.9 5.4-18.6 13.4-23.3-1.7-3.8-2.6-8-2.6-12.3 0-17.2 13.9-31.1 31.1-31.1 10.1 0 19 4.8 24.7 12.2z"/><path class="c" d="m188.6 74.1c-0.1 0.2 0 0.3 0.1 0.3 0.3 0.3 0.6 0.4 0.9 0.6 1.6 0.9 3.2 1.1 4.8 1.1 3.2 0 5.3-1.7 5.3-4.5v-0.1c0-2.6-2.3-3.5-4.5-4.2l-0.3-0.1c-1.6-0.5-3-1-3-2.1 0-0.9 0.8-1.6 2.1-1.6 1.4 0 3.1 0.5 4.2 1.1 0 0 0.3 0.2 0.4-0.1 0.1-0.2 0.6-1.7 0.7-1.8 0-0.2-0.1-0.3-0.2-0.4-1.2-0.8-2.9-1.3-4.7-1.3h-0.3c-3 0-5.1 1.8-5.1 4.4v0.1c0 2.7 2.3 3.6 4.5 4.2l0.3 0.2c1.6 0.4 3 0.9 3 2 0 1-0.9 1.8-2.4 1.8-0.5 0-2.3 0-4.2-1.2-0.2-0.2-0.3-0.3-0.5-0.4-0.1 0-0.3-0.1-0.4 0.2z"/><path class="c" d="m236.6 74.1c-0.1 0.2 0.1 0.3 0.1 0.3 0.3 0.3 0.6 0.4 0.9 0.6 1.6 0.9 3.2 1.1 4.8 1.1 3.3 0 5.3-1.7 5.3-4.5v-0.1c0-2.6-2.3-3.5-4.5-4.2l-0.2-0.1c-1.7-0.5-3.1-1-3.1-2.1 0-0.9 0.9-1.6 2.1-1.6 1.4 0 3.1 0.5 4.2 1.1 0 0 0.3 0.2 0.4-0.1 0.1-0.2 0.6-1.7 0.7-1.8 0.1-0.2 0-0.3-0.2-0.4-1.2-0.8-2.9-1.3-4.7-1.3h-0.3c-3 0-5.1 1.8-5.1 4.4v0.1c0 2.7 2.3 3.6 4.5 4.2l0.3 0.2c1.6 0.4 3 0.9 3 2 0 1-0.9 1.8-2.3 1.8-0.6 0-2.3 0-4.3-1.2-0.2-0.2-0.3-0.3-0.5-0.4-0.1 0-0.3-0.1-0.4 0.2z"/><path fill-rule="evenodd" class="c" d="m272.5 68.6q0 1.6-0.4 2.9-0.4 1.4-1.2 2.4-0.8 1-2.1 1.6-1.3 0.6-2.9 0.6-1.7 0-3-0.6-1.2-0.6-2.1-1.6-0.8-1-1.2-2.4-0.4-1.3-0.4-2.9 0-1.6 0.4-3 0.4-1.3 1.2-2.3 0.9-1.1 2.1-1.6 1.3-0.6 3-0.6 1.6 0 2.9 0.6 1.3 0.5 2.1 1.6 0.8 1 1.2 2.3 0.4 1.4 0.4 3zm-4-3.7q-0.8-1.3-2.6-1.3-1.9 0-2.7 1.3-0.9 1.3-0.9 3.7 0 2.4 0.9 3.7 0.8 1.3 2.7 1.3 1.8 0 2.6-1.3 0.9-1.3 0.9-3.7 0-2.4-0.9-3.7z"/><path class="c" d="m294.6 73.2c-0.1-0.3-0.3-0.2-0.3-0.2q-0.6 0.3-1.3 0.4-0.7 0.1-1.5 0.1-2 0-3.1-1.2c-0.8-0.8-1.2-2-1.2-3.7 0-1.6 0.4-2.8 1-3.6q1.1-1.4 3.1-1.4c1.1 0 2 0.2 2.9 0.4 0 0 0.2 0.1 0.3-0.2 0.2-0.6 0.4-1.1 0.7-1.8 0-0.2-0.1-0.3-0.2-0.3-0.4-0.2-1.2-0.4-1.8-0.5q-0.9-0.1-2.1-0.1-1.7 0-3 0.5-1.4 0.6-2.2 1.6-0.9 1.1-1.4 2.4-0.4 1.4-0.4 3 0 3.4 1.8 5.4 1.8 2 5.4 2.1c1.4 0 2.9-0.3 3.9-0.7 0 0 0.2-0.1 0.1-0.4z"/><path fill-rule="evenodd" class="c" d="m308.9 69.1c0 0.2-0.3 0.3-0.3 0.3l-9.2-0.1c0 1.5 0.4 2.4 1.1 3.1 0.6 0.7 1.7 1.1 3.1 1.1 2.2 0 3.2-0.4 3.8-0.7 0 0 0.3-0.1 0.4 0.2l0.6 1.7c0.1 0.3 0 0.4-0.1 0.4-0.6 0.4-2 1-4.7 1q-1.9 0-3.3-0.6-1.4-0.5-2.4-1.5-0.9-1-1.3-2.4-0.4-1.3-0.4-2.9 0-1.6 0.4-3 0.4-1.4 1.2-2.4 0.9-1 2.2-1.6c0.8-0.4 1.9-0.6 3-0.6 1 0 1.9 0.2 2.7 0.5q0.9 0.4 1.8 1.3c0.3 0.5 0.9 1.3 1.1 2.2 0.6 2.1 0.3 3.9 0.3 4zm-2.9-2c0-0.9-0.2-1.7-0.6-2.2-0.6-0.9-1.4-1.4-2.6-1.4-1.2 0-2.1 0.5-2.6 1.4q-0.6 0.8-0.8 2.2z"/><path fill-rule="evenodd" class="c" d="m234.7 69.1c0 0.2-0.3 0.3-0.3 0.3l-9.3-0.1c0.1 1.5 0.4 2.4 1.1 3.1 0.7 0.7 1.8 1.1 3.2 1.1 2.2 0 3.1-0.4 3.8-0.7 0 0 0.3-0.1 0.4 0.2l0.6 1.7c0.1 0.3 0 0.4-0.1 0.4-0.6 0.4-2 1-4.7 1q-1.9 0-3.4-0.6-1.4-0.5-2.3-1.5-0.9-1-1.3-2.4-0.4-1.3-0.4-2.9 0-1.6 0.4-3 0.4-1.4 1.2-2.4 0.9-1 2.1-1.6c0.9-0.4 2-0.6 3.1-0.6 1 0 1.9 0.2 2.7 0.5q0.8 0.4 1.7 1.3c0.4 0.5 1 1.3 1.2 2.2 0.6 2.1 0.3 3.9 0.3 4zm-2.9-2c-0.1-0.9-0.2-1.7-0.6-2.2-0.6-0.9-1.4-1.4-2.6-1.4-1.2 0-2.1 0.5-2.7 1.4q-0.5 0.8-0.7 2.2z"/><path fill-rule="evenodd" class="c" d="m210.4 66.8v-0.4c0-1.2-0.3-1.8-0.8-2.2q-0.8-0.6-2.3-0.6c0 0-2.2 0-4 0.9q-0.2 0.1-0.2 0.1c0 0-0.2 0.1-0.3-0.1l-0.6-1.8c-0.1-0.3 0.1-0.4 0.1-0.4 0.8-0.6 2.8-1 2.8-1 0.7-0.1 1.8-0.2 2.5-0.2q2.8 0 4.2 1.2 1.5 1.3 1.5 4.1v8.5c0 0 0 0.3-0.2 0.3 0 0-0.3 0.1-0.6 0.2-0.3 0-1.5 0.3-2.4 0.4q-1.4 0.3-2.8 0.3-1.3 0-2.4-0.3-1.1-0.2-1.9-0.8-0.8-0.6-1.2-1.5-0.5-0.8-0.5-2.1 0-1.2 0.5-2.1 0.5-0.9 1.4-1.5 0.8-0.6 1.9-0.9 1.1-0.3 2.3-0.3 0.9 0 1.4 0c0 0 0.8 0.1 1.6 0.2zm-2.5 6.9c1.3-0.1 2.5-0.4 2.5-0.4v-4.2c0 0-1.2-0.2-2.5-0.2-1.9 0-2.7 0.7-2.7 0.7q-0.9 0.6-0.9 1.8 0 0.7 0.3 1.2c0.1 0.2 0.2 0.2 0.6 0.5 0 0 0.8 0.7 2.7 0.6z"/><path class="c" d="m283.6 61.8c0.1-0.2-0.1-0.3-0.1-0.3-0.2-0.1-1-0.2-1.6-0.3-1.2 0-1.8 0.2-2.4 0.4-0.6 0.3-1.2 0.7-1.5 1.2v-1.2c0-0.1-0.2-0.2-0.3-0.2h-2.4c-0.1 0-0.3 0.1-0.3 0.2v13.9c0 0.1 0.2 0.3 0.3 0.3h2.5c0.1 0 0.2-0.2 0.2-0.3v-6.9c0-1 0.1-1.9 0.3-2.5q0.3-0.8 0.9-1.3 0.5-0.5 1.1-0.7c0.4-0.1 0.9-0.2 1.2-0.2 0.5 0 1.1 0.1 1.1 0.1 0.1 0.1 0.2-0.1 0.3-0.2 0.2-0.4 0.6-1.7 0.7-2z"/><path class="c" d="m260.7 55.4c-0.3-0.1-0.5-0.1-0.9-0.2q-0.5-0.1-1.2-0.1-2.6 0-4 1.4-1.3 1.4-1.8 4.2l-0.1 0.7h-2.1c0 0-0.3-0.1-0.3 0.2l-0.4 2c0 0.1 0.1 0.3 0.3 0.3h2.1l-2.1 11.6q-0.3 1.4-0.6 2.2-0.3 0.9-0.6 1.4c-0.3 0.3-0.5 0.5-0.9 0.6q-0.5 0.2-1.1 0.2c-0.2 0-0.5-0.1-0.7-0.1-0.2-0.1-0.3-0.1-0.5-0.2 0 0-0.2-0.1-0.3 0.2-0.1 0.2-0.7 1.7-0.7 1.9-0.1 0.1 0 0.3 0.1 0.3 0.3 0.1 0.5 0.2 0.9 0.3 0.5 0.1 0.9 0.1 1.3 0.1q1.3 0 2.3-0.4 1-0.3 1.7-1.1c0.5-0.6 0.9-1.3 1.2-2.1q0.5-1.3 0.8-3.1l2.1-11.8h3.1c0 0 0.2 0 0.3-0.3l0.3-1.9c0-0.2 0-0.3-0.3-0.3h-2.9c0-0.1 0.1-1.2 0.4-2.1 0.2-0.5 0.5-0.8 0.7-1q0.3-0.4 0.8-0.5 0.4-0.1 1-0.1c0.2 0 0.5 0 0.7 0 0.3 0.1 0.4 0.1 0.5 0.1 0.3 0.1 0.3 0 0.4-0.1l0.7-1.9c0.1-0.3-0.1-0.3-0.2-0.4z"/><path class="c" d="m219.3 75.5c0 0.1-0.1 0.3-0.2 0.3h-2.5c-0.1 0-0.3-0.2-0.3-0.3v-19.8c0-0.2 0.2-0.3 0.3-0.3h2.5c0.1 0 0.2 0.1 0.2 0.3z"/><path class="d" d="m23.4 77.2q-3 0-5.8-0.4v-20q1.4-0.4 3.2-0.5 1.8-0.2 3.4-0.2 5.9 0 8.8 2.6 2.9 2.6 2.9 7.9 0 3.7-1.3 6-1.4 2.4-4.2 3.5-2.8 1.1-7 1.1zm1-3.2q2.6 0 4.2-0.7 1.7-0.8 2.5-2.4 0.9-1.7 0.9-4.3 0-3.8-1.9-5.6-1.9-1.8-5.7-1.8-1.3 0-2.9 0.3v14.4q1.2 0.1 2.9 0.1zm-1.7 3.2q-3 0-5.9-0.4v-20q1.5-0.4 3.3-0.5 1.8-0.2 3.4-0.2 5.8 0 8.8 2.6 2.9 2.6 2.9 7.9 0 3.7-1.4 6-1.3 2.4-4.1 3.5-2.8 1.1-7 1.1zm0.9-3.2q2.6 0 4.3-0.7 1.7-0.8 2.5-2.4 0.8-1.7 0.8-4.3 0-3.8-1.8-5.6-1.9-1.8-5.7-1.8-1.4 0-3 0.3v14.4q1.3 0.1 2.9 0.1zm29.9-4.5v1h-10.1q0 1.4 0.6 2.3 0.5 0.9 1.6 1.2 1.2 0.4 3 0.4 1.8 0 4.1-0.5v2.8q-2.3 0.6-4.6 0.6-4.4 0-6.5-1.9-2-1.9-2-6 0-2.6 0.8-4.3 0.9-1.8 2.5-2.7 1.6-0.9 3.9-0.9 3.3 0 5 2 1.7 2.1 1.7 6zm-6.8-5.6q-1.6 0-2.5 1.1-0.8 1-0.8 3.2h6.6q-0.1-2.2-0.9-3.2-0.8-1.1-2.4-1.1zm6.1 5.6v1h-10.2q0.1 1.4 0.6 2.3 0.6 0.9 1.7 1.2 1.1 0.4 3 0.4 1.8 0 4-0.5v2.8q-2.3 0.6-4.6 0.6-4.3 0-6.4-1.9-2.1-1.9-2.1-6 0-2.6 0.9-4.3 0.8-1.8 2.4-2.7 1.6-0.9 3.9-0.9 3.3 0 5.1 2 1.7 2.1 1.7 6zm-6.8-5.6q-1.6 0-2.5 1.1-0.8 1-0.9 3.2h6.7q-0.1-2.2-0.9-3.2-0.8-1.1-2.4-1.1zm11.4 19.3v-21.5h3.1l0.3 1.7h0.2q0.8-0.9 1.9-1.4 1.2-0.5 2.6-0.5 1.9 0 3.4 0.8 1.5 0.8 2.3 2.4 0.9 1.7 0.9 4.4 0 4-2.2 6.1-2.1 2.1-6.2 2.1-1.2 0-2.5-0.2v6.1zm6.1-8.8q2.5 0 3.6-1.2 1.2-1.3 1.2-3.8 0-2.6-1-3.7-1-1.1-2.8-1.1-1 0-1.9 0.3-0.8 0.4-1.4 1.1v8.1q1 0.3 2.3 0.3zm-6.9 8.8v-21.5h3.2l0.3 1.7h0.1q0.8-0.9 2-1.4 1.1-0.5 2.5-0.5 2 0 3.4 0.8 1.5 0.8 2.4 2.4 0.9 1.7 0.9 4.4 0 4-2.2 6.1-2.2 2.1-6.3 2.1-1.1 0-2.5-0.2v6.1zm6.2-8.8q2.4 0 3.6-1.2 1.2-1.3 1.2-3.8 0-2.6-1-3.7-1-1.1-2.9-1.1-0.9 0-1.8 0.3-0.8 0.4-1.5 1.1v8.1q1.1 0.3 2.4 0.3zm17.4 2.6h-3.8v-22.6h3.8zm-0.8 0h-3.8v-22.6h3.8zm11.8 0.2q-2.3 0-4.1-0.8-1.6-0.9-2.6-2.7-0.9-1.8-0.9-4.4 0-3.9 2-5.9 2-2 5.6-2 3.6 0 5.6 2 2 2 2 5.9 0 2.6-0.9 4.4-1 1.8-2.7 2.7-1.7 0.8-4 0.8zm0-2.9q1.9 0 2.8-1.2 1-1.1 1-3.7 0-2.7-1-3.9-0.9-1.1-2.8-1.1-1.9 0-2.8 1.1-1 1.2-1 3.8 0 2.7 1 3.8 0.9 1.2 2.8 1.2zm-0.7 2.9q-2.4 0-4.1-0.8-1.7-0.9-2.6-2.7-0.9-1.8-0.9-4.4 0-3.9 1.9-5.9 2-2 5.7-2 3.6 0 5.6 2 2 2 2 5.9 0 2.6-1 4.4-0.9 1.8-2.6 2.7-1.7 0.8-4 0.8zm0-2.9q1.8 0 2.8-1.2 0.9-1.1 0.9-3.7 0-2.7-0.9-3.9-1-1.1-2.8-1.1-1.9 0-2.9 1.1-0.9 1.2-0.9 3.8 0 2.7 0.9 3.8 1 1.2 2.9 1.2zm18.4-0.6l4.6-12h3.7l-8.4 21.4h-3.8l2.5-6.1h-1l-6-15.3h4zm-0.7 0l4.5-12.1h3.8l-8.5 21.5h-3.7l2.4-6.2h-1l-6-15.3h4zm28.1 0.4q0.7 0 1.8-0.2v3q-1.4 0.3-2.9 0.3-5.7 0-5.7-5.6v-6.9h-2.8v-3h2.8l0.7-5.5h3.1v5.5h4.6v3h-4.6v6.3q0 1.7 0.7 2.4 0.7 0.7 2.3 0.7zm-0.8 0q0.8 0 1.8-0.2v3q-1.4 0.3-2.8 0.3-5.7 0-5.7-5.6v-6.9h-2.8v-3h2.8l0.7-5.5h3.1v5.5h4.6v3h-4.6v6.3q0 1.7 0.7 2.4 0.7 0.7 2.2 0.7zm12.7 3.1q-2.3 0-4-0.9-1.7-0.8-2.6-2.6-1-1.8-1-4.4 0-3.9 2-5.9 2-2 5.6-2 3.7 0 5.7 2 1.9 2 1.9 5.9 0 2.6-0.9 4.4-0.9 1.7-2.6 2.6-1.7 0.9-4.1 0.9zm0-2.9q1.9 0 2.9-1.2 0.9-1.1 0.9-3.8 0-2.6-0.9-3.8-1-1.1-2.9-1.1-1.8 0-2.8 1.1-0.9 1.2-0.9 3.8 0 2.6 0.9 3.8 1 1.2 2.8 1.2zm-0.7 2.9q-2.3 0-4-0.9-1.7-0.8-2.7-2.6-0.9-1.8-0.9-4.4 0-3.9 2-5.9 2-2 5.6-2 3.6 0 5.6 2 2 2 2 5.9 0 2.6-0.9 4.4-1 1.7-2.7 2.6-1.7 0.9-4 0.9zm0-2.9q1.9 0 2.8-1.2 1-1.1 1-3.8 0-2.6-1-3.8-0.9-1.1-2.8-1.1-1.9 0-2.8 1.1-1 1.2-1 3.8 0 2.6 1 3.8 0.9 1.2 2.8 1.2z"/><path class="d" d="m329.6 77v-20.4q3.2-0.6 6.3-0.6 4.7 0 7 1.8 2.3 1.8 2.3 5.6 0 3.6-2.3 5.5-2.3 1.8-7 1.8-1.2 0-2.4-0.1v6.4zm6.4-9.1q2.8 0 4.1-1.1 1.3-1.1 1.3-3.4 0-2.3-1.3-3.4-1.2-1.1-3.9-1.1-1.5 0-2.7 0.2v8.6q1.2 0.2 2.5 0.2zm-7.2 9.1v-20.4q3.2-0.6 6.3-0.6 4.7 0 7 1.8 2.3 1.8 2.3 5.6 0 3.6-2.3 5.5-2.3 1.8-6.9 1.8-1.2 0-2.5-0.1v6.4zm6.4-9.1q2.9 0 4.2-1.1 1.3-1.1 1.3-3.4 0-2.3-1.3-3.4-1.3-1.1-4-1.1-1.4 0-2.7 0.2v8.6q1.3 0.2 2.5 0.2zm14.1 9.1v-15.3h3.2l0.3 2h0.2q0.7-1.1 1.8-1.6 1.2-0.6 2.6-0.6 0.7 0 1.3 0.2v3.4q-0.6-0.1-1.5-0.1-1.1 0-2.3 0.4-1.1 0.4-1.8 1.3v10.3zm-0.7 0v-15.3h3.1l0.3 2h0.2q0.8-1.1 1.9-1.6 1.2-0.6 2.6-0.6 0.7 0 1.3 0.2v3.4q-0.6-0.1-1.5-0.1-1.2 0-2.3 0.4-1.1 0.4-1.8 1.3v10.3zm19.6 0.3q-2.4 0-4.1-0.9-1.7-0.9-2.6-2.6-0.9-1.8-0.9-4.4 0-3.9 2-5.9 2-2 5.6-2 3.6 0 5.6 2 2 2 2 5.9 0 2.6-1 4.3-0.9 1.8-2.6 2.7-1.7 0.9-4 0.9zm0-3q1.8 0 2.8-1.1 1-1.2 1-3.8 0-2.7-1-3.8-1-1.2-2.8-1.2-1.9 0-2.9 1.2-0.9 1.1-0.9 3.8 0 2.6 0.9 3.8 1 1.1 2.9 1.1zm-0.8 3q-2.3 0-4-0.9-1.7-0.9-2.6-2.6-1-1.8-1-4.4 0-3.9 2-5.9 2-2 5.6-2 3.7 0 5.7 2 1.9 2 1.9 5.9 0 2.6-0.9 4.3-0.9 1.8-2.6 2.7-1.7 0.9-4.1 0.9zm0-3q1.9 0 2.9-1.1 0.9-1.2 0.9-3.8 0-2.7-0.9-3.8-1-1.2-2.9-1.2-1.8 0-2.8 1.2-0.9 1.1-0.9 3.8 0 2.6 0.9 3.8 1 1.1 2.8 1.1zm17.8 3q-1.9 0-3.4-0.8-1.5-0.8-2.4-2.5-0.8-1.7-0.8-4.3 0-4 2.2-6.1 2.1-2.1 6.2-2.1 1.2 0 2.5 0.2v-7.3h3.8v22.6h-3.2l-0.2-1.6h-0.2q-0.8 0.9-1.9 1.4-1.2 0.5-2.6 0.5zm1-3.1q1 0 1.8-0.4 0.9-0.3 1.5-1.1v-8.1q-1.1-0.2-2.3-0.2-2.5 0-3.6 1.2-1.2 1.2-1.2 3.8 0 2.6 1 3.7 1 1.1 2.8 1.1zm-1.7 3.1q-1.9 0-3.4-0.8-1.5-0.8-2.4-2.5-0.9-1.7-0.9-4.3 0-4 2.2-6.1 2.2-2.1 6.3-2.1 1.2 0 2.5 0.2v-7.3h3.8v22.6h-3.2l-0.2-1.6h-0.2q-0.8 0.9-2 1.4-1.1 0.5-2.5 0.5zm1-3.1q0.9 0 1.8-0.4 0.9-0.3 1.5-1.1v-8.1q-1.2-0.2-2.4-0.2-2.4 0-3.6 1.2-1.1 1.2-1.1 3.8 0 2.6 1 3.7 1 1.1 2.8 1.1zm18.3 3.1q-2.6 0-4.1-1.5-1.5-1.5-1.5-4.6v-9.5h3.8v9.3q0 1.6 0.7 2.3 0.7 0.7 2 0.7 1 0 2-0.4 1-0.4 1.6-1.2v-10.7h3.8v15.3h-3.1l-0.3-1.6h-0.1q-1 0.9-2.2 1.4-1.3 0.5-2.6 0.5zm-0.7 0q-2.7 0-4.2-1.5-1.4-1.5-1.4-4.6v-9.5h3.8v9.3q0 1.6 0.7 2.3 0.7 0.7 2 0.7 1 0 1.9-0.4 1-0.4 1.7-1.2v-10.7h3.8v15.3h-3.2l-0.2-1.6h-0.2q-0.9 0.9-2.2 1.4-1.2 0.5-2.5 0.5zm21.5 0q-3.9 0-6-2-2-2-2-5.9 0-4 2.1-5.9 2.2-2 6.4-2 2 0 3.6 0.4v3q-1.7-0.4-3.2-0.4-2.6 0-3.8 1.2-1.2 1.1-1.2 3.7 0 2.5 1.1 3.7 1.2 1.1 3.5 1.1 0.8 0 1.7-0.1 0.8-0.2 1.9-0.5v3q-1.8 0.7-4.1 0.7zm-0.7 0q-3.9 0-6-2-2.1-2-2.1-5.9 0-4 2.2-5.9 2.2-2 6.4-2 2 0 3.6 0.4v3q-1.7-0.4-3.2-0.4-2.6 0-3.8 1.2-1.3 1.1-1.3 3.7 0 2.5 1.2 3.7 1.1 1.1 3.5 1.1 0.8 0 1.6-0.1 0.9-0.2 2-0.5v3q-1.8 0.7-4.1 0.7zm16.3-3.1q0.7 0 1.8-0.3v3.1q-1.4 0.3-2.8 0.3-5.8 0-5.8-5.6v-7h-2.7v-3h2.7l0.7-5.4h3.2v5.4h4.6v3h-4.6v6.3q0 1.7 0.7 2.5 0.7 0.7 2.2 0.7zm-0.8 0q0.8 0 1.9-0.3v3.1q-1.4 0.3-2.9 0.3-5.7 0-5.7-5.6v-7h-2.8v-3h2.8l0.7-5.4h3.1v5.4h4.6v3h-4.6v6.3q0 1.7 0.7 2.5 0.7 0.7 2.2 0.7zm9.8 2.8h-3.8v-15.3h3.8zm-1.9-17.9q-1.2 0-1.8-0.5-0.6-0.5-0.6-1.5 0-0.9 0.6-1.4 0.6-0.6 1.8-0.6 1.2 0 1.8 0.6 0.6 0.5 0.6 1.4 0 1-0.6 1.5-0.6 0.5-1.8 0.5zm1.1 17.9h-3.8v-15.2h3.8zm-1.9-17.9q-1.2 0-1.8-0.5-0.6-0.6-0.6-1.5 0-1 0.6-1.5 0.6-0.5 1.8-0.5 1.2 0 1.8 0.5 0.6 0.5 0.6 1.5 0 0.9-0.6 1.5-0.6 0.5-1.8 0.5zm13.7 18.1q-2.4 0-4.1-0.9-1.7-0.8-2.6-2.6-0.9-1.8-0.9-4.4 0-3.9 2-5.9 2-2 5.6-2 3.6 0 5.6 2 2 2 2 5.9 0 2.6-1 4.4-0.9 1.8-2.6 2.6-1.7 0.9-4 0.9zm0-2.9q1.8 0 2.8-1.2 1-1.1 1-3.8 0-2.6-1-3.8-1-1.1-2.8-1.1-1.9 0-2.9 1.1-0.9 1.2-0.9 3.8 0 2.7 0.9 3.8 1 1.2 2.9 1.2zm-0.8 2.9q-2.3 0-4-0.9-1.7-0.8-2.6-2.6-1-1.8-1-4.4 0-3.9 2-5.9 2-2 5.6-2 3.7 0 5.7 2 1.9 2 1.9 5.9 0 2.6-0.9 4.4-0.9 1.8-2.6 2.6-1.7 0.9-4.1 0.9zm0-2.9q1.9 0 2.9-1.2 0.9-1.1 0.9-3.8 0-2.6-0.9-3.8-1-1.1-2.9-1.1-1.8 0-2.8 1.1-0.9 1.2-0.9 3.8 0 2.7 0.9 3.8 1 1.2 2.8 1.2zm13 2.7v-15.3h3.1l0.2 1.6h0.2q1-0.9 2.3-1.4 1.2-0.5 2.7-0.5 2.6 0 4 1.5 1.5 1.5 1.5 4.6v9.5h-3.8v-9.3q0-1.6-0.7-2.3-0.7-0.7-2.1-0.7-1 0-2 0.4-1 0.4-1.6 1.2v10.7zm-0.8 0v-15.3h3.2l0.2 1.6h0.2q1-0.9 2.2-1.4 1.3-0.5 2.8-0.5 2.5 0 4 1.5 1.5 1.5 1.5 4.6v9.5h-3.8v-9.3q0-1.6-0.7-2.3-0.7-0.7-2.1-0.7-1 0-2 0.4-1 0.4-1.7 1.2v10.7z"/></svg>